PathFileType	4	(X/Y/Z)	Patient4_TMGait_0pt7_02_right_11.trc.trc
DataRate	CameraRate	NumFrames	NumMarkers	Units	OrigDataRate	OrigDataStartFrame	OrigNumFrames
86.419753086420	86.419753086420	4	33	mm	86.419753086420	89	       141
Frame#	Time	Sacral			L.Shoulder			Chest			R.Shoulder			Neck			R.ASIS			L.ASIS			R.Thigh.Superior			R.Thigh.Lateral			R.Thigh.Inferior			R.Patella			L.Thigh.Superior			L.Thigh.Lateral			L.Thigh.Inferior			L.Patella			L.Shank.Superior			L.Shank.Lateral			L.Shank.Inferior			R.Shank.Superior			R.Shank.Lateral			R.Shank.Inferior			R.Heel			R.Midfoot.Superior			R.Midfoot.Lateral			R.Toe			L.Heel			L.Midfoot.Lateral			L.Midfoot.Superior			L.Toe			L.Elbow			L.Wrist			R.Elbow			R.Wrist			
		X1	Y1	Z1	X2	Y2	Z2	X3	Y3	Z3	X4	Y4	Z4	X5	Y5	Z5	X6	Y6	Z6	X7	Y7	Z7	X8	Y8	Z8	X9	Y9	Z9	X10	Y10	Z10	X11	Y11	Z11	X12	Y12	Z12	X13	Y13	Z13	X14	Y14	Z14	X15	Y15	Z15	X16	Y16	Z16	X17	Y17	Z17	X18	Y18	Z18	X19	Y19	Z19	X20	Y20	Z20	X21	Y21	Z21	X22	Y22	Z22	X23	Y23	Z23	X24	Y24	Z24	X25	Y25	Z25	X26	Y26	Z26	X27	Y27	Z27	X28	Y28	Z28	X29	Y29	Z29	X30	Y30	Z30	X31	Y31	Z31	X32	Y32	Z32	X33	Y33	Z33	

89	12.678285714286	758.638983377540	998.540551899077	472.800067047878	915.276775452548	1423.964340620984	278.309263304121	1037.009071815885	1358.177765775800	428.408321437892	971.057069362998	1437.555260896229	607.761165798393	934.125865626845	1486.367383642987	430.418751595910	988.288811882258	933.629996094352	576.893403640181	966.029349402365	954.424377682087	304.465126047729	1024.248799478253	728.511027724187	559.584681352388	943.275069204072	619.563582880918	624.793272929118	1024.370830455381	559.900554391167	551.510889616184	1012.964325700926	449.712818353708	571.963128785201	1041.798380900554	763.035384565622	334.065571396517	971.736568209381	635.375942546631	274.169467298683	1069.725831411511	570.746510537594	335.001577027836	1081.523008410441	500.312896652516	343.156348927281	1058.686658649706	424.683139558279	335.225150999267	976.526727915615	304.781426297436	284.508364810365	1036.848431001475	197.092869901486	353.827709836112	932.087220043376	385.052462040296	576.190775849623	808.315363623470	350.442197535798	634.424670653082	790.224346478307	242.274664304330	583.133217830281	586.661021462259	181.592258337069	549.864729768559	753.125313357022	125.225616024267	595.142893648930	644.115898896035	123.883241786233	624.971092590936	817.416805400398	29.987446447440	621.568352089707	917.775596547539	37.977833089269	394.993055946255	991.159854226412	35.594872504696	313.265962413668	1072.909255806051	97.833215829566	339.900931675556	1201.895418208498	49.032272875593	310.604017613366	805.884183753749	1085.237950587054	184.995503586239	812.873966382606	824.520304547824	177.965296560117	1055.233066351965	1105.767625106089	731.446934568662	1281.923107747693	1144.194051070031	631.959037084449	
90	12.689857142857	757.396846272677	999.684438195995	470.676646677641	916.142719237652	1424.797959811649	276.127694590686	1036.981516994224	1358.973894531972	426.899005741491	970.243405085197	1438.709428878965	605.858888170446	934.104483974079	1487.336343718120	428.126045729606	986.879461940578	934.509572927945	575.407965413541	965.230263258543	955.436518771648	303.025753377281	1028.474268079561	732.035361977244	558.189198816686	951.340911610768	621.333536153327	624.065208173357	1034.097808640996	563.424750297591	550.538467278340	1024.756721438380	452.161197803673	571.384085279266	1039.091808767090	762.233084710097	332.771226717983	967.891519321582	635.614483926931	273.035283519633	1064.554086221169	569.952304368041	334.680243098597	1075.424446027843	499.570831442714	342.913406271531	1052.288791430446	424.187381193605	334.834387391083	969.769990054378	304.581849263909	284.160599890537	1029.311719492258	196.798401177423	353.849435144422	942.450051230359	387.944742016538	575.554090707850	817.457746194739	356.921652575800	633.444676246855	796.845399831032	249.034656253697	582.854234478500	592.930807123728	198.028612383228	548.300043546911	754.986204163136	130.541686458966	595.058733041100	645.631096941388	136.299135922329	623.701821793128	811.874060289580	28.944024789301	621.873926642741	909.566062208821	37.902264722403	394.982220197440	982.940134604697	35.517157814132	313.260049682762	1064.742628245731	97.670400779331	339.976169578563	1193.710914194847	48.851346564540	310.605053116990	814.335827131414	1083.288255382681	181.457805888802	832.624871464264	822.910705385117	173.871853575014	1044.876314814237	1104.746325004180	731.036785529455	1274.320003758067	1131.184775158789	633.478331041316	
91	12.701428571429	755.998310312109	1000.757158533465	468.657456380051	917.015723514406	1425.576778790120	274.091071801379	1036.874464104430	1359.652035070714	425.586455535497	969.276951454337	1439.751792764426	604.127357212639	934.060598649082	1488.244003934028	426.002530821742	985.326529752501	935.365349705831	574.083670277850	964.313218818671	956.363023243862	301.695486442723	1032.530773607050	735.903468587086	556.649425482511	959.500850370175	623.536416673534	623.291802174948	1043.691687557799	567.525387341851	549.324039004207	1036.686657483280	455.255988937189	570.437700711922	1036.258742265329	761.489676287044	331.754029745945	964.044156951566	635.900846542069	271.988397372940	1059.335971124913	569.214651448117	334.458958919957	1069.275135651800	498.867200698620	342.750547758462	1045.865042838229	423.722870575134	334.522915124257	963.025436872279	304.412588863304	283.801208247895	1021.771253099603	196.525349796877	353.890095718739	953.134815068668	391.309505865665	574.660957520088	827.178354347445	363.440536823575	632.305659187866	804.332759977563	255.890129966158	582.349647072675	600.594965850215	213.785401866136	546.632753709363	758.051737719463	136.135200926802	594.756706514458	648.653056227808	148.484719923497	622.297276982585	807.840200868540	28.360116514926	622.019794691097	901.352907892193	37.837837631424	394.961193828570	974.722538766800	35.451424139282	313.250156452462	1056.588188341322	97.519979895857	340.052137128433	1185.531799174292	48.661035720739	310.619968409908	823.156982196008	1081.549255288393	177.827521124624	853.033280898207	822.014538308331	169.823277970531	1034.134504580502	1103.711956608321	730.462352212178	1266.075717512636	1116.778983915566	635.464699571894	
92	12.713000000000	754.473486331944	1001.776973061906	466.729394727277	917.870274107337	1426.316113566596	272.213027177095	1036.683447137024	1360.232335694727	424.471305622608	968.166409086763	1440.694014166450	602.570380947962	934.004780247232	1489.098363848040	424.063533156863	983.649984274777	936.216712207418	572.893874311179	963.320344452784	957.229352476405	300.467180500175	1036.337726124490	740.096070086752	554.930641472619	967.640085424350	626.185973405076	622.439953170777	1053.035651980150	572.194083201791	547.858318050292	1048.639263162249	458.996484414001	569.154669777503	1033.370933017037	760.812278494961	330.920350451463	960.159109389636	636.206567553617	271.043513766403	1054.096600253596	568.515235454222	334.275717585080	1063.110598589750	498.202806584057	342.651180237227	1039.444377012256	423.288851990376	334.276870945558	956.291004028208	304.282450955132	283.450970198072	1014.236880251662	196.274536265524	353.942588756625	964.049029643464	395.128888913764	573.546361921571	837.364654518480	369.902502414278	631.032604626354	812.644836732891	262.689166190220	581.647032570569	609.447133448693	228.320582960872	544.987648855694	762.494658730118	141.861936393000	594.240540650675	653.272407653288	159.974906539049	620.835013297518	805.846663744750	28.428149099819	621.889903697493	893.142792110188	37.783683993650	394.931800369146	966.512608483431	35.400693646225	313.235726378958	1048.445252590500	97.391000130768	340.125349027376	1177.359488952493	48.480834270042	310.641518790093	832.321230188236	1080.063299396004	174.117550784848	874.025965093605	821.921869160672	165.881610119209	1023.116753574989	1102.702018468702	729.700666202694	1257.082363021067	1101.014471637773	637.952977741877	
